<svg width="32" height="32" viewBox="0 0 32 32" fill="none" xmlns="http://www.w3.org/2000/svg">
  <!-- Central ego node -->
  <circle cx="16" cy="16" r="4" fill="#000000" stroke="#000000" stroke-width="2"/>
  
  <!-- Surrounding nodes -->
  <circle cx="8" cy="8" r="2" fill="#000000"/>
  <circle cx="24" cy="8" r="2" fill="#000000"/>
  <circle cx="8" cy="24" r="2" fill="#000000"/>
  <circle cx="24" cy="24" r="2" fill="#000000"/>
  <circle cx="16" cy="6" r="2" fill="#000000"/>
  <circle cx="26" cy="16" r="2" fill="#000000"/>
  <circle cx="16" cy="26" r="2" fill="#000000"/>
  <circle cx="6" cy="16" r="2" fill="#000000"/>
  
  <!-- Connection lines -->
  <line x1="16" y1="16" x2="8" y2="8" stroke="#000000" stroke-width="1"/>
  <line x1="16" y1="16" x2="24" y2="8" stroke="#000000" stroke-width="1"/>
  <line x1="16" y1="16" x2="8" y2="24" stroke="#000000" stroke-width="1"/>
  <line x1="16" y1="16" x2="24" y2="24" stroke="#000000" stroke-width="1"/>
  <line x1="16" y1="16" x2="16" y2="6" stroke="#000000" stroke-width="1"/>
  <line x1="16" y1="16" x2="26" y2="16" stroke="#000000" stroke-width="1"/>
  <line x1="16" y1="16" x2="16" y2="26" stroke="#000000" stroke-width="1"/>
  <line x1="16" y1="16" x2="6" y2="16" stroke="#000000" stroke-width="1"/>
</svg>
